<svg xmlns="http://www.w3.org/2000/svg" width="920" height="372" viewBox="0 0 920 372" role="img">
<title>Resource Coverage</title>
<rect width="920" height="372" rx="16" fill="#ffffff"/>
<text x="24" y="35" font-family="Arial, Helvetica, sans-serif" font-size="22" font-weight="700" fill="#24292f">Resource Coverage</text>
<text x="24" y="77" font-family="Arial, Helvetica, sans-serif" font-size="14" fill="#57606a">Paper page</text>
<rect x="260" y="63" width="555" height="20" rx="5" fill="#0969da"/>
<text x="825" y="78" font-family="Arial, Helvetica, sans-serif" font-size="14" font-weight="700" fill="#24292f">195</text>
<text x="24" y="111" font-family="Arial, Helvetica, sans-serif" font-size="14" fill="#57606a">Poster thumbnail</text>
<rect x="260" y="97" width="509" height="20" rx="5" fill="#1a7f37"/>
<text x="779" y="112" font-family="Arial, Helvetica, sans-serif" font-size="14" font-weight="700" fill="#24292f">179</text>
<text x="24" y="145" font-family="Arial, Helvetica, sans-serif" font-size="14" fill="#57606a">GitHub</text>
<rect x="260" y="131" width="71" height="20" rx="5" fill="#8250df"/>
<text x="341" y="146" font-family="Arial, Helvetica, sans-serif" font-size="14" font-weight="700" fill="#24292f">25</text>
<text x="24" y="179" font-family="Arial, Helvetica, sans-serif" font-size="14" fill="#57606a">Code</text>
<rect x="260" y="165" width="71" height="20" rx="5" fill="#bf8700"/>
<text x="341" y="180" font-family="Arial, Helvetica, sans-serif" font-size="14" font-weight="700" fill="#24292f">25</text>
<text x="24" y="213" font-family="Arial, Helvetica, sans-serif" font-size="14" fill="#57606a">Project page</text>
<rect x="260" y="199" width="130" height="20" rx="5" fill="#cf222e"/>
<text x="400" y="214" font-family="Arial, Helvetica, sans-serif" font-size="14" font-weight="700" fill="#24292f">46</text>
<text x="24" y="247" font-family="Arial, Helvetica, sans-serif" font-size="14" fill="#57606a">Video</text>
<rect x="260" y="233" width="344" height="20" rx="5" fill="#0a7ea4"/>
<text x="614" y="248" font-family="Arial, Helvetica, sans-serif" font-size="14" font-weight="700" fill="#24292f">121</text>
<text x="24" y="281" font-family="Arial, Helvetica, sans-serif" font-size="14" fill="#57606a">arXiv</text>
<rect x="260" y="267" width="310" height="20" rx="5" fill="#0969da"/>
<text x="580" y="282" font-family="Arial, Helvetica, sans-serif" font-size="14" font-weight="700" fill="#24292f">109</text>
<text x="24" y="315" font-family="Arial, Helvetica, sans-serif" font-size="14" fill="#57606a">Slides</text>
<rect x="260" y="301" width="51" height="20" rx="5" fill="#1a7f37"/>
<text x="321" y="316" font-family="Arial, Helvetica, sans-serif" font-size="14" font-weight="700" fill="#24292f">18</text>
</svg>