<svg xmlns="http://www.w3.org/2000/svg" width="920" height="372" viewBox="0 0 920 372" role="img">
<title>Task Tag Distribution</title>
<rect width="920" height="372" rx="16" fill="#ffffff"/>
<text x="24" y="35" font-family="Arial, Helvetica, sans-serif" font-size="22" font-weight="700" fill="#24292f">Task Tag Distribution</text>
<text x="24" y="77" font-family="Arial, Helvetica, sans-serif" font-size="14" fill="#57606a">Generative / Diffusion</text>
<rect x="260" y="63" width="555" height="20" rx="5" fill="#0969da"/>
<text x="825" y="78" font-family="Arial, Helvetica, sans-serif" font-size="14" font-weight="700" fill="#24292f">79</text>
<text x="24" y="111" font-family="Arial, Helvetica, sans-serif" font-size="14" fill="#57606a">Segmentation</text>
<rect x="260" y="97" width="540" height="20" rx="5" fill="#1a7f37"/>
<text x="810" y="112" font-family="Arial, Helvetica, sans-serif" font-size="14" font-weight="700" fill="#24292f">77</text>
<text x="24" y="145" font-family="Arial, Helvetica, sans-serif" font-size="14" fill="#57606a">Federated / Continual / Generalization</text>
<rect x="260" y="131" width="456" height="20" rx="5" fill="#8250df"/>
<text x="726" y="146" font-family="Arial, Helvetica, sans-serif" font-size="14" font-weight="700" fill="#24292f">65</text>
<text x="24" y="179" font-family="Arial, Helvetica, sans-serif" font-size="14" fill="#57606a">Foundation / Adaptation</text>
<rect x="260" y="165" width="428" height="20" rx="5" fill="#bf8700"/>
<text x="698" y="180" font-family="Arial, Helvetica, sans-serif" font-size="14" font-weight="700" fill="#24292f">61</text>
<text x="24" y="213" font-family="Arial, Helvetica, sans-serif" font-size="14" fill="#57606a">Detection / Diagnosis</text>
<rect x="260" y="199" width="428" height="20" rx="5" fill="#cf222e"/>
<text x="698" y="214" font-family="Arial, Helvetica, sans-serif" font-size="14" font-weight="700" fill="#24292f">61</text>
<text x="24" y="247" font-family="Arial, Helvetica, sans-serif" font-size="14" fill="#57606a">Medical VLM / VQA / Reasoning</text>
<rect x="260" y="233" width="400" height="20" rx="5" fill="#0a7ea4"/>
<text x="670" y="248" font-family="Arial, Helvetica, sans-serif" font-size="14" font-weight="700" fill="#24292f">57</text>
<text x="24" y="281" font-family="Arial, Helvetica, sans-serif" font-size="14" fill="#57606a">Restoration / Reconstruction</text>
<rect x="260" y="267" width="323" height="20" rx="5" fill="#0969da"/>
<text x="593" y="282" font-family="Arial, Helvetica, sans-serif" font-size="14" font-weight="700" fill="#24292f">46</text>
<text x="24" y="315" font-family="Arial, Helvetica, sans-serif" font-size="14" fill="#57606a">Registration</text>
<rect x="260" y="301" width="35" height="20" rx="5" fill="#1a7f37"/>
<text x="305" y="316" font-family="Arial, Helvetica, sans-serif" font-size="14" font-weight="700" fill="#24292f">5</text>
</svg>